# xmcd CD database file
#
# Track frame offsets:
#	150
#	4180
#	18158
#	29619
#	41984
#	53240
#	64478
#	78779
#	90038
#	102332
#	113406
#	125452
#
# Disc length: 1703 seconds
#
# Revision: 0
# Processed by: cddbd v1.5.2PL0 Copyright (c) Steve Scherf et al.
# Submitted via: CDex 1.51
#
DISCID=8d06a50c
DTITLE=X-MIX - We gaan ervoor
DYEAR=2010
DGENRE=Kinderen
TTITLE0=Tune xmix
TTITLE1=Dax, je snurkt
TTITLE2=Ga eens een keertje naar de kapper
TTITLE3=Ik wil de zon
TTITLE4=We zitten vast
TTITLE5=Nee, nee, nee, nee, nee
TTITLE6=Jij bent erbij
TTITLE7=X.M.I.X
TTITLE8=Jij bent mijn enige liefde
TTITLE9=Doe rustig aan
TTITLE10=Niet meer bang zijn
TTITLE11=Tune xmix
EXTD=YEAR: 2010
EXTT0=
EXTT1=
EXTT2=
EXTT3=
EXTT4=
EXTT5=
EXTT6=
EXTT7=
EXTT8=
EXTT9=
EXTT10=
EXTT11=
PLAYORDER=
